<?xml version="1.0" standalone="no"?>
<!DOCTYPE svg PUBLIC "-//W3C//DTD SVG 20010904//EN"
 "http://www.w3.org/TR/2001/REC-SVG-20010904/DTD/svg10.dtd">
<svg version="1.0" xmlns="http://www.w3.org/2000/svg"
 width="1080.000000pt" height="1080.000000pt" viewBox="0 0 1080.000000 1080.000000"
 preserveAspectRatio="xMidYMid meet">
<metadata>
Created by potrace 1.16, written by Peter Selinger 2001-2019
</metadata>
<g transform="translate(0.000000,1080.000000) scale(0.100000,-0.100000)"
fill="#000000" stroke="none">
<path d="M5410 9345 c-9 -10 -16 -66 -21 -166 -5 -83 -13 -168 -19 -191 -17
-61 -10 -68 63 -68 118 0 217 73 217 160 0 50 -34 158 -62 200 -39 57 -150 98
-178 65z m107 -61 c69 -43 109 -218 62 -265 -28 -28 -81 -49 -125 -49 l-37 0
6 48 c4 26 9 97 13 157 3 61 7 116 10 123 4 15 35 9 71 -14z"/>
<path d="M4592 9294 c-29 -20 -28 -42 8 -176 49 -181 89 -278 115 -278 25 0
26 18 0 76 -14 31 -25 62 -25 68 0 6 14 24 30 40 43 42 87 165 76 211 -5 20
-20 28 -87 50 -95 30 -89 29 -117 9z m111 -55 c48 -13 49 -14 43 -48 -7 -44
-58 -147 -71 -144 -10 2 -54 162 -55 197 0 13 5 17 18 13 9 -3 39 -11 65 -18z"/>
<path d="M5723 9284 c3 -16 1 -103 -4 -193 -6 -93 -6 -168 -1 -173 5 -5 56 -9
113 -10 96 -2 104 -1 104 17 0 24 -52 38 -122 33 l-53 -5 0 37 c0 21 3 59 7
85 l6 48 93 -7 c95 -6 118 0 94 28 -6 9 -45 17 -101 21 l-90 7 3 42 3 41 104
0 c71 0 105 4 108 12 8 22 -35 33 -153 40 l-117 6 6 -29z"/>
<path d="M4868 9290 c-25 -15 -40 -73 -42 -159 -1 -70 2 -82 29 -126 37 -59
68 -83 121 -91 36 -5 45 -2 77 25 46 41 87 123 87 175 0 32 -6 45 -38 75 -51
48 -160 111 -192 111 -14 0 -33 -5 -42 -10z m128 -80 c88 -58 98 -71 91 -121
-5 -40 -44 -101 -79 -123 -26 -16 -66 3 -102 47 -29 37 -31 44 -31 120 1 45 4
90 8 100 10 27 46 20 113 -23z"/>
<path d="M6286 9238 c-8 -13 -28 -58 -46 -100 -19 -46 -38 -78 -46 -78 -10 0
-14 -11 -13 -37 1 -21 -7 -73 -16 -116 -15 -62 -16 -80 -6 -90 17 -17 37 11
45 65 4 22 9 45 12 49 5 9 69 -59 110 -115 14 -20 26 -27 38 -23 27 11 19 31
-40 96 -31 34 -55 63 -53 65 2 1 34 17 71 34 70 34 128 89 128 123 0 59 -91
149 -149 149 -11 0 -27 -10 -35 -22z m97 -62 c46 -42 49 -76 10 -104 -48 -34
-114 -63 -133 -60 -17 3 -16 9 14 83 18 44 36 88 39 98 9 25 29 21 70 -17z"/>
<path d="M4460 9223 c0 -10 10 -43 22 -73 31 -79 33 -236 2 -277 -47 -62 -76
-27 -144 174 -41 118 -59 148 -81 126 -10 -10 54 -209 98 -301 32 -68 79 -95
121 -71 15 8 38 35 52 59 20 38 24 58 24 130 0 47 -6 103 -13 125 -34 105 -44
125 -62 125 -11 0 -19 -7 -19 -17z"/>
<path d="M4029 9129 c-13 -13 -19 -29 -16 -42 30 -135 36 -172 31 -193 -4 -17
-1 -29 9 -37 9 -7 28 -46 43 -87 30 -86 47 -111 66 -92 9 9 7 25 -10 73 -20
55 -20 60 -4 54 9 -3 31 -9 47 -12 17 -2 52 -12 78 -20 34 -11 52 -12 59 -5
26 26 -12 47 -144 76 l-27 6 35 57 c61 102 69 161 24 203 -48 45 -154 56 -191
19z m149 -45 c29 -20 28 -52 -3 -118 -29 -62 -62 -97 -70 -75 -4 12 -45 199
-45 206 0 11 100 0 118 -13z"/>
<path d="M6519 9139 c-1 -8 -1 -18 1 -24 2 -14 -22 -98 -31 -109 -5 -6 -9 -19
-9 -31 0 -11 -12 -61 -26 -109 -18 -63 -22 -92 -15 -99 6 -6 48 -19 94 -29
117 -26 122 -26 122 -3 0 15 -12 24 -50 37 -27 9 -65 17 -82 18 -40 0 -41 7
-12 102 12 43 25 68 32 65 78 -29 169 -49 179 -39 19 19 -7 38 -75 57 -110 31
-106 28 -94 74 7 25 17 41 26 41 8 0 52 -12 98 -27 72 -24 85 -25 93 -13 14
22 -5 35 -95 63 -115 36 -155 42 -156 26z"/>
<path d="M6808 9010 c-27 -27 -30 -36 -24 -70 3 -21 22 -71 41 -111 19 -41 35
-83 35 -96 0 -28 -35 -53 -75 -53 -37 0 -71 -22 -61 -38 10 -17 80 -15 122 3
44 18 66 66 55 116 -5 19 -23 63 -40 99 -41 85 -41 115 0 129 31 11 62 3 166
-40 26 -10 35 -11 45 -1 17 17 -3 35 -79 66 -88 37 -145 35 -185 -4z"/>
<path d="M3835 9012 c-43 -27 -60 -50 -90 -115 -37 -81 -43 -152 -17 -203 36
-71 110 -124 172 -124 42 0 97 52 111 103 11 39 12 41 22 20 10 -22 41 -31 51
-15 6 10 -52 145 -67 154 -21 14 -52 8 -105 -18 -51 -25 -66 -49 -38 -60 8 -3
32 4 54 15 48 25 56 17 47 -42 -9 -52 -29 -93 -50 -101 -69 -26 -165 55 -165
141 0 87 59 197 112 211 23 6 33 14 33 28 0 26 -33 29 -70 6z"/>
<path d="M7095 8886 c-123 -86 -182 -226 -131 -312 29 -49 93 -88 145 -88 62
-1 62 22 0 40 -55 16 -105 59 -115 99 -12 47 22 127 77 181 46 45 49 47 92 41
25 -4 61 -14 81 -24 28 -13 39 -14 48 -5 19 19 -16 48 -81 66 -70 20 -91 20
-116 2z"/>
<path d="M3427 8863 c-4 -3 -7 -57 -7 -119 0 -70 -4 -115 -11 -119 -6 -4 -33
7 -60 24 -85 53 -159 62 -159 20 0 -14 7 -19 28 -19 16 0 51 -12 78 -26 27
-15 70 -37 95 -50 26 -13 50 -31 53 -40 17 -44 92 -144 108 -144 23 0 23 30 0
61 -10 13 -34 51 -54 84 l-36 60 5 122 c4 91 2 127 -7 138 -14 16 -23 19 -33
8z"/>
<path d="M7485 8730 c-21 -23 -156 -117 -182 -127 -30 -11 -163 -145 -163
-165 0 -33 29 -19 90 42 l61 61 45 -33 c31 -22 43 -37 39 -47 -23 -58 -32
-176 -15 -186 22 -13 37 17 43 83 7 75 72 263 113 325 37 56 12 95 -31 47z"/>
<path d="M5570 8623 c-36 -48 -41 -62 -36 -91 3 -19 7 -36 9 -39 7 -6 89 15
100 26 6 6 13 37 15 69 3 45 0 62 -13 75 -9 9 -20 17 -24 17 -5 0 -27 -26 -51
-57z"/>
<path d="M7612 8597 c-13 -16 -7 -26 40 -61 l38 -28 -49 -55 c-57 -64 -156
-236 -147 -258 12 -33 37 -11 82 74 48 91 104 169 138 191 16 10 24 7 59 -28
l40 -41 -29 -36 c-16 -20 -38 -48 -49 -63 -11 -14 -46 -59 -77 -99 -35 -45
-55 -79 -51 -89 3 -8 23 -24 45 -35 21 -11 57 -36 78 -56 39 -35 70 -39 70 -9
0 16 -52 64 -99 92 -17 10 -31 22 -31 26 0 10 91 128 99 128 3 -1 37 -27 75
-59 65 -55 96 -67 96 -36 0 13 -70 81 -113 110 -34 22 -34 27 2 67 l29 33 70
-63 c72 -63 102 -76 102 -43 0 17 -72 86 -155 146 -22 16 -75 62 -119 103 -92
85 -129 108 -144 89z"/>
<path d="M2984 8566 c-3 -8 29 -66 73 -133 43 -65 79 -121 81 -125 2 -4 -16 1
-40 12 -54 24 -216 62 -229 55 -18 -12 -8 -32 44 -90 159 -180 203 -216 222
-184 4 5 -35 53 -85 105 -51 52 -90 98 -87 100 10 10 93 -19 179 -62 48 -24
94 -44 102 -44 33 0 22 32 -32 97 -31 37 -77 100 -101 138 -54 86 -100 145
-112 145 -5 0 -12 -6 -15 -14z"/>
<path d="M5340 8318 c-36 -37 -59 -67 -55 -76 3 -7 5 -17 5 -22 0 -20 107 -45
195 -45 99 0 148 16 153 51 2 16 -10 27 -56 52 -33 18 -72 48 -86 67 -22 28
-34 35 -61 35 -29 0 -44 -10 -95 -62z"/>
<path d="M2729 8210 c-115 -20 -127 -70 -48 -190 48 -71 81 -95 157 -112 48
-10 57 -9 97 10 59 29 72 68 55 166 -10 57 -19 77 -45 103 -31 31 -37 33 -101
32 -38 -1 -90 -5 -115 -9z m185 -55 c19 -20 36 -78 36 -127 0 -91 -126 -106
-199 -23 -48 55 -85 125 -73 137 29 29 210 39 236 13z"/>
<path d="M2522 8098 c-5 -7 -17 -27 -25 -44 -9 -18 -39 -57 -67 -88 -47 -51
-56 -76 -27 -76 6 0 28 16 48 36 l37 36 93 -89 c52 -48 109 -99 128 -113 l34
-26 -37 -34 c-20 -19 -44 -35 -53 -35 -9 0 -19 -7 -23 -15 -4 -8 -15 -32 -25
-53 -20 -42 -69 -77 -107 -77 -46 0 -121 48 -160 102 -21 29 -38 59 -38 68 0
9 14 45 31 79 24 48 29 65 20 74 -19 18 -67 -42 -86 -107 -15 -52 -15 -58 1
-92 10 -20 40 -60 68 -88 64 -65 145 -95 206 -77 41 12 116 87 126 125 3 12
20 28 37 36 31 15 115 110 142 161 12 23 12 29 1 38 -15 12 -30 2 -60 -41 -15
-20 -15 -21 -44 -2 -16 11 -73 60 -126 110 l-97 92 20 33 c12 19 21 44 21 57
0 24 -21 30 -38 10z"/>
<path d="M5591 7964 c-32 -41 -34 -61 -11 -100 12 -19 20 -38 16 -41 -3 -3
-70 -1 -148 5 -155 12 -200 10 -290 -13 -53 -13 -62 -13 -88 0 -61 32 -91 12
-100 -64 -5 -43 -7 -47 -43 -55 -32 -8 -40 -7 -58 13 -18 19 -30 22 -87 20
-37 -1 -106 2 -153 6 -169 15 -329 -40 -453 -155 l-64 -60 -85 0 c-160 0 -303
-63 -448 -198 -101 -94 -167 -183 -319 -427 -246 -395 -318 -468 -665 -670
-314 -183 -422 -345 -394 -590 22 -198 99 -329 349 -591 331 -346 467 -559
596 -934 23 -65 52 -78 80 -36 9 14 22 26 29 26 8 0 23 12 34 26 66 84 237
249 340 328 l60 46 51 -79 c48 -75 93 -124 169 -183 l35 -26 -57 -62 c-107
-115 -219 -275 -286 -407 -33 -67 -35 -73 -23 -73 5 0 28 37 51 82 73 139 204
320 298 411 l39 37 60 -38 c74 -48 140 -119 152 -164 20 -72 -10 -182 -93
-347 -90 -178 -136 -301 -176 -466 -22 -92 -22 -95 -10 -95 5 0 14 24 21 53
33 147 103 343 166 468 37 75 54 92 54 56 0 -39 41 -90 95 -117 50 -25 52 -25
310 -24 370 1 852 36 1180 84 217 32 390 63 427 76 101 35 162 124 229 329 66
205 92 248 255 427 43 47 95 111 114 142 19 30 37 55 40 55 12 1 163 -128 282
-240 71 -67 131 -119 134 -116 8 8 -192 202 -302 293 l-102 84 38 86 c32 73
66 182 98 317 l7 28 103 -63 c131 -81 292 -201 362 -272 30 -31 62 -56 70 -56
30 0 -148 162 -275 250 -27 19 -94 63 -150 96 l-100 61 4 144 c1 79 -2 180 -7
224 -6 44 -12 105 -14 135 -3 55 -3 55 27 58 28 3 32 -1 69 -79 142 -295 393
-540 684 -668 80 -35 122 -45 138 -34 14 10 422 1244 461 1393 24 92 27 124
28 260 0 142 -2 160 -24 215 -33 80 -69 132 -134 191 -94 86 -220 137 -446
180 -380 72 -562 136 -961 341 -215 111 -310 167 -353 206 -49 45 -133 94
-202 118 -68 24 -197 37 -275 27 -110 -13 -185 -17 -160 -10 33 10 50 46 50
104 0 37 -5 50 -22 63 -22 15 -24 14 -38 -5 -8 -12 -28 -37 -44 -56 -23 -28
-28 -41 -23 -69 6 -34 5 -35 -30 -35 -39 0 -38 -4 -18 90 6 26 -26 90 -44 90
-5 0 -19 -12 -30 -26z m-215 -180 c51 -6 52 -7 57 -46 7 -56 16 -61 65 -41 39
17 42 20 36 47 l-6 28 93 -6 c194 -13 209 -16 209 -38 0 -80 80 -73 96 9 5 27
11 31 44 36 56 7 178 -9 244 -32 74 -26 132 -60 178 -105 59 -58 402 -241 671
-360 186 -82 401 -150 552 -176 315 -53 447 -102 558 -209 135 -128 165 -334
91 -612 -13 -52 -117 -375 -230 -718 l-205 -623 -30 6 c-41 8 -180 79 -263
134 -100 67 -263 227 -338 332 -65 92 -138 224 -138 249 0 12 31 13 208 7 114
-4 238 -10 275 -14 64 -8 104 2 55 12 -46 10 -308 26 -430 26 l-126 0 -25 78
c-44 135 -61 242 -72 457 -14 278 -40 398 -122 564 -65 132 -158 261 -304 421
-156 170 -199 203 -199 154 0 -9 52 -70 115 -137 177 -189 275 -318 345 -457
70 -139 94 -241 110 -460 5 -85 12 -177 14 -204 2 -27 -3 -74 -12 -105 -9 -35
-15 -106 -16 -186 l-1 -130 -30 -2 c-16 -2 -116 -13 -221 -24 l-191 -22 -64
54 c-36 30 -86 70 -112 88 -26 18 -45 37 -41 42 10 16 122 69 176 83 29 7 54
18 56 24 8 25 -164 -35 -239 -84 -25 -16 -27 -16 -64 9 -63 43 -91 13 -33 -35
l33 -26 -24 -26 c-29 -31 -20 -34 16 -6 25 19 28 19 52 4 49 -31 171 -126 171
-133 0 -6 -62 -21 -192 -47 -28 -6 -40 -25 -15 -23 6 0 62 11 122 23 l110 23
48 -46 c61 -59 121 -151 147 -225 11 -33 20 -62 20 -66 0 -4 -30 3 -67 16
-148 52 -420 117 -429 103 -6 -11 3 -14 81 -29 151 -29 394 -105 413 -128 31
-39 -12 -231 -72 -322 l-26 -39 -122 71 c-105 61 -325 172 -380 191 -10 4 -18
3 -18 -2 0 -5 78 -47 173 -94 188 -94 327 -172 327 -186 0 -18 -95 -92 -154
-121 -34 -16 -90 -34 -125 -40 l-64 -11 -94 93 c-51 51 -93 86 -93 78 0 -8 35
-50 77 -92 l78 -78 -72 0 c-39 0 -149 11 -245 25 -187 28 -373 34 -450 16
-122 -28 -228 -100 -302 -204 -25 -34 -80 -126 -123 -203 -92 -162 -129 -214
-194 -269 -63 -53 -119 -74 -200 -74 -64 -1 -153 21 -165 40 -9 15 39 73 185
221 74 76 131 141 128 145 -9 8 -212 -192 -284 -279 -30 -38 -60 -68 -65 -68
-6 0 -41 30 -78 66 -49 47 -79 87 -105 140 -20 41 -34 81 -31 89 12 33 235
186 448 307 7 4 9 10 6 14 -15 14 -211 -104 -370 -223 -90 -67 -96 -70 -103
-50 -4 12 -9 95 -12 185 l-5 162 54 24 c88 39 216 82 318 106 120 28 132 32
103 37 -39 7 -260 -55 -412 -116 l-54 -22 6 43 c20 150 20 147 3 154 -28 11
-34 -5 -48 -116 l-13 -105 -45 -24 c-25 -13 -90 -50 -144 -82 -55 -33 -103
-59 -108 -59 -5 0 -18 21 -29 47 -52 123 -239 701 -239 741 0 12 -7 36 -15 54
-18 42 -59 231 -79 368 -24 161 -31 344 -17 438 30 203 116 453 246 713 81
163 88 189 50 189 -17 0 -178 -329 -234 -481 -57 -153 -95 -300 -113 -432 -21
-159 14 -479 80 -737 27 -103 27 -110 27 -410 -1 -272 -3 -319 -24 -434 -12
-71 -36 -169 -52 -219 -29 -88 -115 -267 -128 -267 -4 0 -26 51 -50 113 -83
215 -221 450 -368 623 -37 43 -126 140 -198 214 -146 151 -205 224 -257 320
-56 101 -80 190 -81 295 0 106 21 171 83 258 54 75 134 136 335 257 331 198
393 263 645 670 139 226 201 310 296 399 146 138 269 193 434 193 l94 0 68 64
c118 111 248 159 410 152 l88 -4 38 -42 c43 -47 62 -51 108 -23 17 10 49 22
72 26 l42 7 -10 -27 c-27 -72 3 -120 57 -91 51 27 184 171 192 207 9 46 56 57
177 43z m1508 -2146 c23 -114 33 -474 14 -494 -5 -4 -181 69 -227 94 -7 4 -23
41 -35 82 -24 84 -80 183 -140 248 -21 23 -37 45 -34 47 8 9 279 42 350 44 63
1 68 -1 72 -21z m-31 -504 c39 -19 39 -19 33 -66 -14 -104 -106 -368 -129
-368 -13 0 -208 141 -205 148 2 4 20 41 41 82 38 76 67 184 67 252 l0 37 78
-33 c42 -18 94 -42 115 -52z m-3208 -523 l37 -93 -22 -15 c-70 -49 -178 -144
-269 -237 -57 -58 -105 -106 -106 -106 -1 0 11 28 28 63 99 208 144 453 147
812 l1 110 74 -221 c40 -122 89 -263 110 -313z m2985 148 c49 -33 94 -67 101
-75 22 -27 -18 -84 -192 -277 -99 -110 -141 -185 -194 -345 -35 -107 -55 -144
-55 -105 0 34 -57 138 -155 283 -54 79 -114 178 -132 220 -48 104 -48 105 -64
105 -51 0 14 -147 164 -368 121 -177 151 -246 144 -327 -4 -50 -8 -57 -51 -96
-54 -47 -96 -59 -336 -94 -433 -65 -803 -96 -1260 -107 -293 -6 -333 -1 -382
47 -23 24 -28 37 -28 78 0 27 7 71 15 97 19 65 95 177 115 171 8 -3 42 -15 75
-27 85 -30 200 -24 278 15 105 53 166 126 286 341 101 179 153 249 223 301
130 95 265 108 611 60 103 -14 227 -26 275 -26 l87 1 52 -58 c28 -32 55 -54
59 -50 4 4 -13 29 -39 55 -26 26 -47 50 -47 53 0 4 21 9 46 13 68 9 181 67
244 125 30 27 59 50 63 51 5 0 48 -27 97 -61z m-2607 -216 c3 -82 11 -166 17
-187 11 -38 11 -40 -23 -74 l-35 -35 -49 36 c-26 19 -62 50 -79 69 -37 39
-114 156 -114 173 0 17 238 164 266 165 8 0 13 -49 17 -147z"/>
<path d="M5575 7678 c-11 -6 -41 -34 -67 -62 -48 -51 -54 -78 -24 -99 56 -38
236 -50 296 -19 52 25 47 51 -17 85 -28 15 -66 45 -83 67 -34 42 -65 51 -105
28z"/>
<path d="M5648 7386 c-30 -13 -71 -32 -91 -45 -49 -30 -147 -137 -177 -194
-20 -38 -31 -48 -59 -53 -19 -4 -48 -2 -66 5 -17 6 -38 11 -47 11 -27 0 -48
-35 -48 -80 0 -24 -9 -77 -21 -118 -19 -68 -19 -75 -5 -91 25 -28 61 -15 127
46 50 47 59 52 59 34 0 -77 56 -251 80 -251 15 0 12 18 -15 86 -14 36 -28 95
-31 137 -6 67 -4 79 16 111 15 26 21 47 17 69 -12 83 116 231 257 298 48 22
86 42 86 43 0 14 -36 11 -82 -8z"/>
<path d="M4283 7266 c-69 -22 -182 -113 -169 -135 4 -6 30 9 64 36 31 25 76
55 100 65 154 68 283 -122 283 -417 0 -134 -23 -242 -90 -424 -34 -94 -36
-101 -20 -101 22 0 98 210 125 350 55 286 -37 590 -190 629 -53 13 -50 13
-103 -3z"/>
<path d="M4900 7161 c-18 -34 -11 -66 20 -96 27 -26 33 -27 81 -22 62 8 89 28
73 55 -12 20 -121 81 -146 82 -10 0 -22 -9 -28 -19z"/>
<path d="M6055 7081 c-50 -23 -109 -80 -135 -131 -11 -22 -32 -81 -46 -131
-30 -102 -27 -118 31 -187 118 -141 320 -157 453 -37 45 40 102 143 102 183 0
22 3 24 35 18 47 -9 75 1 75 25 0 15 -7 19 -33 19 -50 0 -114 47 -189 137 -77
93 -127 123 -204 123 -27 0 -67 -9 -89 -19z m170 -51 c47 -29 134 -139 141
-178 11 -60 -2 -171 -23 -200 -46 -62 -160 -105 -229 -88 l-27 7 30 18 c32 20
63 75 63 114 0 38 -27 93 -56 116 -19 15 -41 21 -75 21 -62 0 -103 -33 -122
-97 -19 -66 -29 -29 -12 44 28 121 91 219 160 249 45 20 113 17 150 -6z"/>
<path d="M4940 6999 c-47 -19 -47 -53 2 -94 35 -30 50 -31 89 -8 37 22 46 55
25 88 -13 20 -25 25 -54 24 -20 0 -48 -5 -62 -10z"/>
<path d="M3898 6757 c-83 -24 -157 -91 -208 -188 -28 -54 -60 -158 -60 -195 0
-27 86 -103 149 -133 48 -22 69 -26 151 -26 84 1 101 4 148 28 67 35 136 98
169 154 l25 44 -21 65 c-64 197 -201 293 -353 251z m147 -56 c65 -29 123 -107
161 -214 19 -54 9 -60 -12 -8 -30 74 -98 106 -167 77 -97 -40 -102 -199 -9
-246 17 -8 32 -18 32 -22 0 -4 -19 -12 -42 -19 -51 -13 -153 -7 -194 12 -43
21 -75 86 -75 156 -1 132 44 211 146 259 60 28 106 30 160 5z"/>
<path d="M5485 6540 c-3 -5 18 -21 47 -36 176 -89 348 -238 450 -390 40 -59
68 -80 68 -51 0 22 -127 182 -200 251 -94 88 -169 143 -268 194 -88 46 -88 46
-97 32z"/>
<path d="M5210 6266 c-36 -13 -102 -41 -148 -61 -74 -33 -98 -38 -226 -50
-159 -14 -196 -28 -258 -92 -87 -92 -199 -303 -218 -414 -31 -175 61 -323 210
-338 l61 -6 32 -75 c57 -138 210 -263 366 -300 35 -8 91 -11 160 -8 131 7 234
43 343 121 167 120 285 338 313 579 3 32 11 60 16 64 5 3 19 24 30 47 57 110
-24 251 -216 380 -49 34 -116 80 -148 104 -103 75 -203 91 -317 49z m190 -36
c19 -5 58 -25 85 -45 28 -19 95 -66 150 -104 150 -102 224 -194 225 -277 0
-77 -90 -143 -208 -152 l-67 -4 -1 58 c-1 102 -49 164 -126 164 -36 0 -90 -29
-119 -63 -30 -35 -51 -120 -43 -172 12 -84 87 -155 163 -155 53 0 80 19 99 72
l17 48 50 0 c27 0 75 7 105 15 30 8 56 15 58 15 9 0 -1 -77 -19 -140 -44 -159
-130 -299 -237 -385 -65 -52 -173 -107 -247 -125 -61 -15 -184 -15 -248 0
-149 33 -292 159 -343 302 l-14 41 33 31 c19 17 36 38 39 46 4 13 10 12 39 -4
43 -25 117 -25 161 1 74 43 103 175 59 262 -46 88 -129 128 -198 95 -58 -29
-76 -70 -83 -194 -9 -153 -44 -200 -148 -200 -38 0 -58 6 -89 29 -94 68 -115
207 -54 353 39 94 129 239 179 290 49 52 96 67 245 77 123 9 131 12 245 62 64
28 128 55 142 60 36 11 109 10 150 -1z"/>
<path d="M4313 6103 c-161 -281 -245 -631 -224 -935 0 -10 7 -18 15 -18 11 0
13 13 11 58 -5 84 13 279 35 382 37 172 113 372 194 506 33 54 37 74 16 74 -4
0 -26 -30 -47 -67z"/>
<path d="M8310 7975 c-14 -7 -68 -26 -120 -41 -52 -14 -114 -35 -137 -45 -24
-11 -47 -19 -51 -19 -18 0 -92 -61 -92 -75 0 -23 21 -18 94 20 37 19 73 35 79
35 7 0 24 -17 39 -38 l26 -37 -40 -83 c-22 -45 -37 -89 -34 -98 12 -31 40 -9
62 49 26 67 103 175 187 264 33 34 56 67 52 72 -9 15 -35 13 -65 -4z"/>
<path d="M4716 7878 c-22 -32 -20 -52 11 -88 25 -31 29 -32 86 -28 36 3 62 10
68 19 19 29 4 52 -51 79 -84 42 -96 44 -114 18z"/>
<path d="M8399 7768 c-13 -14 -53 -45 -89 -70 -83 -58 -170 -136 -170 -153 0
-30 31 -20 91 32 35 30 84 68 108 85 42 30 43 30 36 7 -12 -41 -52 -121 -95
-189 -22 -35 -39 -69 -37 -75 8 -23 40 -14 99 28 35 25 112 72 173 105 114 62
138 83 118 103 -8 8 -31 -1 -89 -34 -44 -24 -105 -58 -137 -76 l-58 -31 29 57
c16 32 40 91 53 131 21 66 22 74 7 88 -14 14 -18 14 -39 -8z"/>
<path d="M8610 7530 c0 -11 9 -38 20 -60 l20 -38 -103 -53 c-56 -28 -121 -65
-145 -81 -23 -16 -46 -27 -51 -24 -5 3 -14 20 -21 38 -8 18 -17 38 -22 45 -12
15 -38 6 -38 -13 0 -37 111 -214 135 -214 25 0 27 20 4 56 l-22 36 24 23 c13
14 78 51 144 85 l120 60 28 -35 c29 -35 62 -46 70 -22 2 6 -12 30 -31 52 -19
22 -48 67 -66 100 -32 62 -66 85 -66 45z"/>
<path d="M2064 7515 c-4 -9 8 -30 28 -53 35 -39 128 -166 128 -175 0 -9 109
-116 135 -133 25 -17 45 -12 45 10 0 8 -20 30 -45 51 -25 20 -53 47 -61 60
-14 22 -13 26 13 64 21 31 33 40 48 35 11 -3 54 -8 96 -11 56 -4 78 -2 84 7
13 22 -25 40 -82 40 -58 0 -243 55 -325 96 -56 28 -57 28 -64 9z"/>
<path d="M8700 7224 c-135 -52 -290 -127 -290 -141 0 -28 32 -23 130 21 56 25
105 46 108 46 4 0 -28 -34 -70 -75 -104 -102 -100 -110 45 -101 60 4 107 4
104 -1 -3 -4 -53 -33 -111 -63 -73 -38 -106 -60 -106 -72 0 -31 34 -21 152 44
62 34 148 79 190 100 82 41 97 53 79 71 -7 7 -37 6 -103 -6 -109 -19 -238 -32
-238 -24 0 3 47 47 105 98 101 88 123 120 85 126 -8 1 -44 -9 -80 -23z"/>
<path d="M1959 7188 c-43 -27 -89 -80 -89 -101 0 -23 44 -54 155 -106 55 -27
124 -65 154 -85 30 -20 58 -35 64 -33 20 6 56 113 57 167 0 117 -64 169 -218
177 -78 4 -91 2 -123 -19z m213 -39 c56 -14 78 -49 78 -123 0 -36 -6 -70 -13
-80 -12 -17 -18 -15 -93 26 -43 24 -109 58 -146 75 -38 18 -68 37 -68 43 0 20
59 69 88 73 34 4 105 -2 154 -14z"/>
<path d="M1780 6972 c0 -13 36 -35 130 -82 71 -35 127 -66 125 -68 -3 -3 -27
-9 -55 -13 -68 -11 -193 -50 -202 -63 -12 -18 -3 -30 28 -37 16 -4 75 -23 131
-43 146 -50 230 -58 205 -19 -4 6 -52 23 -107 38 -55 15 -111 33 -124 40 l-24
12 34 12 c19 7 81 15 139 18 58 3 113 10 123 15 32 16 17 35 -45 58 -35 13
-121 52 -192 86 -135 67 -166 76 -166 46z"/>
<path d="M8655 6801 c-83 -11 -107 -20 -103 -39 4 -18 12 -19 119 -7 l65 8 12
-40 c7 -22 12 -45 12 -52 0 -6 -29 -39 -65 -73 -65 -62 -82 -98 -47 -98 10 0
38 21 62 46 52 54 219 166 287 193 32 12 48 25 48 36 0 16 -12 18 -110 20 -60
2 -135 5 -165 8 -30 3 -82 2 -115 -2z"/>
<path d="M1715 6650 c-12 -19 9 -31 80 -46 128 -27 250 -113 243 -172 -3 -23
-8 -27 -38 -30 -19 -1 -100 11 -179 27 l-145 30 -21 -22 c-21 -22 -52 -152
-58 -242 l-2 -40 158 -32 c87 -17 180 -38 206 -46 51 -15 71 -13 71 8 0 19
-22 29 -107 50 -40 9 -73 22 -73 29 0 6 7 38 15 71 17 63 14 85 -9 85 -14 0
-31 -44 -50 -131 l-6 -26 -72 14 c-40 8 -77 18 -81 22 -4 4 2 53 14 110 18 83
25 101 38 97 69 -21 292 -56 319 -51 71 13 93 80 49 146 -29 44 -134 114 -199
134 -77 22 -144 29 -153 15z"/>
<path d="M9039 6546 c-2 -2 -56 -11 -119 -19 -63 -9 -132 -23 -152 -31 -21 -9
-51 -16 -67 -16 -16 0 -32 -4 -35 -8 -3 -5 1 -35 9 -68 7 -32 18 -85 25 -116
9 -47 15 -58 31 -58 24 0 25 30 4 115 -8 33 -14 65 -15 71 0 23 91 48 275 75
92 13 117 23 109 44 -6 13 -54 21 -65 11z"/>
<path d="M6911 3519 c-117 -11 -187 -35 -232 -80 -42 -42 -51 -82 -33 -135 16
-46 52 -84 134 -142 36 -25 84 -64 108 -86 70 -66 58 -103 -60 -190 -21 -15
-38 -31 -38 -36 0 -11 29 -40 40 -40 18 0 132 92 151 123 15 24 19 44 16 80
-6 72 -37 106 -199 221 -30 21 -65 54 -78 73 -22 32 -23 37 -9 62 26 47 85 70
205 82 117 11 148 24 128 57 -13 21 -26 22 -133 11z"/>
<path d="M6343 3498 c-6 -7 -14 -33 -18 -58 -9 -57 -70 -262 -94 -315 -44 -99
-69 -346 -35 -359 8 -3 24 -1 35 4 16 9 19 22 20 88 0 42 6 99 12 127 12 48
13 50 57 57 25 5 62 7 84 6 36 -3 39 -6 56 -51 10 -26 42 -84 72 -128 40 -61
58 -79 73 -77 37 5 30 48 -24 129 -37 57 -63 115 -105 240 -30 91 -61 199 -67
240 -6 41 -14 81 -19 89 -10 20 -34 24 -47 8z"/>
<path d="M5766 3412 c-13 -22 -8 -653 6 -667 2 -3 87 -1 189 3 l184 7 0 30 0
30 -151 -2 -151 -2 -13 96 c-9 67 -11 144 -6 262 9 204 3 251 -30 251 -12 0
-25 -3 -28 -8z"/>
<path d="M5338 3377 c-12 -13 -14 -119 -7 -599 0 -41 5 -68 12 -71 7 -2 87 -2
179 1 181 5 206 12 193 51 -7 23 -9 23 -155 19 l-148 -3 -13 85 c-9 57 -12
155 -10 299 2 171 0 215 -11 222 -18 12 -24 11 -40 -4z"/>
<path d="M4980 3306 c-139 -17 -220 -35 -221 -49 -2 -22 3 -42 13 -48 6 -4 14
-44 20 -90 5 -46 13 -97 18 -114 5 -16 19 -95 31 -175 11 -80 26 -148 33 -152
18 -12 45 -9 119 13 39 12 100 24 135 28 73 7 97 26 72 56 -12 15 -26 16 -81
11 -37 -3 -95 -15 -130 -26 -35 -10 -64 -18 -65 -17 -2 3 -38 239 -39 252 0 6
65 19 145 30 131 18 145 22 148 41 6 41 -16 45 -144 29 -66 -8 -129 -17 -140
-20 -20 -4 -23 1 -33 58 -6 35 -11 68 -11 74 0 13 32 19 165 33 145 15 147 16
143 48 -3 23 -8 27 -38 29 -19 0 -82 -5 -140 -11z"/>
<path d="M4594 3276 c-3 -8 2 -60 12 -117 27 -166 3 -331 -63 -417 -79 -105
-128 -42 -168 218 -44 281 -49 300 -80 300 -35 0 -35 -25 0 -233 41 -250 58
-314 96 -360 38 -46 75 -54 132 -29 80 36 128 123 154 281 15 95 15 109 -1
223 -9 67 -22 128 -28 135 -14 17 -47 17 -54 -1z"/>
<path d="M4093 3265 c-3 -9 -1 -41 5 -73 6 -31 14 -105 18 -164 l7 -107 -29
-12 c-16 -6 -72 -12 -124 -13 l-95 -1 -12 107 c-20 183 -50 255 -91 215 -14
-15 -14 -22 1 -84 15 -62 35 -218 34 -268 0 -43 31 -212 46 -247 16 -38 30
-45 56 -29 13 8 12 19 -2 78 -8 37 -19 89 -22 116 l-7 47 90 0 c49 0 103 3
119 6 l30 6 7 -99 c9 -141 19 -163 62 -146 14 5 16 17 10 77 -3 39 -8 154 -11
256 -6 166 -16 283 -31 333 -7 21 -52 23 -61 2z"/>
</g>
</svg>
